# xmcd
#
# Track frame offsets:
#	150
#	17939
#	33858
#	53482
#	70099
#	83363
#	99523
#	115141
#	128898
#	147313
#	164153
#	180639
#
# Disc length: 2583 seconds
#
# Revision: 0
# Processed by: cddbd v1.5.1PL0 Copyright (c) Steve Scherf et al.
# Submitted via: dBpowerAMP V4.0
#
DISCID=990a150c
DTITLE=David Bennett Cohen - In the pocket
DYEAR=1900
DGENRE=Blues
TTITLE0=Mo's boogie
TTITLE1=Hannah's aunt
TTITLE2=American beauty
TTITLE3=Blue silk
TTITLE4=Crawfish jubilee
TTITLE5=Lousiana nocturne
TTITLE6=Treasures of the heart
TTITLE7=Lost in the shuffle
TTITLE8=The queen of hearts
TTITLE9=The Keystone strut
TTITLE10=Rockin' pneumonia
TTITLE11=Georgia (on my mind)
EXTD=
EXTT0=
EXTT1=
EXTT2=
EXTT3=
EXTT4=
EXTT5=
EXTT6=
EXTT7=
EXTT8=
EXTT9=
EXTT10=
EXTT11=
PLAYORDER=
